<svg id="visual" viewBox="0 0 960 540" width="960" height="540" xmlns="http://www.w3.org/2000/svg" xmlns:xlink="http://www.w3.org/1999/xlink" version="1.1"><rect x="0" y="0" width="960" height="540" fill="#fff"></rect><path d="M0 344L22.8 349.7C45.7 355.3 91.3 366.7 137 368.7C182.7 370.7 228.3 363.3 274 365C319.7 366.7 365.3 377.3 411.2 382.7C457 388 503 388 548.8 385.7C594.7 383.3 640.3 378.7 686 377.5C731.7 376.3 777.3 378.7 823 372.3C868.7 366 914.3 351 937.2 343.5L960 336L960 541L937.2 541C914.3 541 868.7 541 823 541C777.3 541 731.7 541 686 541C640.3 541 594.7 541 548.8 541C503 541 457 541 411.2 541C365.3 541 319.7 541 274 541C228.3 541 182.7 541 137 541C91.3 541 45.7 541 22.8 541L0 541Z" fill="#f7770f"></path><path d="M0 423L22.8 413.8C45.7 404.7 91.3 386.3 137 383.8C182.7 381.3 228.3 394.7 274 404C319.7 413.3 365.3 418.7 411.2 416.3C457 414 503 404 548.8 399.8C594.7 395.7 640.3 397.3 686 398C731.7 398.7 777.3 398.3 823 398.5C868.7 398.7 914.3 399.3 937.2 399.7L960 400L960 541L937.2 541C914.3 541 868.7 541 823 541C777.3 541 731.7 541 686 541C640.3 541 594.7 541 548.8 541C503 541 457 541 411.2 541C365.3 541 319.7 541 274 541C228.3 541 182.7 541 137 541C91.3 541 45.7 541 22.8 541L0 541Z" fill="#ff5263"></path><path d="M0 432L22.8 426.8C45.7 421.7 91.3 411.3 137 414.5C182.7 417.7 228.3 434.3 274 435.5C319.7 436.7 365.3 422.3 411.2 422.7C457 423 503 438 548.8 444.3C594.7 450.7 640.3 448.3 686 445.7C731.7 443 777.3 440 823 441.2C868.7 442.3 914.3 447.7 937.2 450.3L960 453L960 541L937.2 541C914.3 541 868.7 541 823 541C777.3 541 731.7 541 686 541C640.3 541 594.7 541 548.8 541C503 541 457 541 411.2 541C365.3 541 319.7 541 274 541C228.3 541 182.7 541 137 541C91.3 541 45.7 541 22.8 541L0 541Z" fill="#ff4fa9"></path><path d="M0 455L22.8 457.2C45.7 459.3 91.3 463.7 137 466C182.7 468.3 228.3 468.7 274 466.3C319.7 464 365.3 459 411.2 459.5C457 460 503 466 548.8 465.3C594.7 464.7 640.3 457.3 686 456.8C731.7 456.3 777.3 462.7 823 460.8C868.7 459 914.3 449 937.2 444L960 439L960 541L937.2 541C914.3 541 868.7 541 823 541C777.3 541 731.7 541 686 541C640.3 541 594.7 541 548.8 541C503 541 457 541 411.2 541C365.3 541 319.7 541 274 541C228.3 541 182.7 541 137 541C91.3 541 45.7 541 22.8 541L0 541Z" fill="#c66ee3"></path><path d="M0 511L22.8 510C45.7 509 91.3 507 137 506.2C182.7 505.3 228.3 505.7 274 504.5C319.7 503.3 365.3 500.7 411.2 499.2C457 497.7 503 497.3 548.8 499.5C594.7 501.7 640.3 506.3 686 506.2C731.7 506 777.3 501 823 496C868.7 491 914.3 486 937.2 483.5L960 481L960 541L937.2 541C914.3 541 868.7 541 823 541C777.3 541 731.7 541 686 541C640.3 541 594.7 541 548.8 541C503 541 457 541 411.2 541C365.3 541 319.7 541 274 541C228.3 541 182.7 541 137 541C91.3 541 45.7 541 22.8 541L0 541Z" fill="#588aff"></path></svg>